HIERARCHY
ROOT Pelvis
{
	OFFSET 0.000000 0.000000 0.000000
	CHANNELS 6 Xposition Yposition Zposition Zrotation Yrotation Xrotation 
	JOINT Left_hip
	{
		OFFSET 0.068973 -0.091024 -0.007589
		CHANNELS 3 Zrotation Yrotation Xrotation
		JOINT Left_knee
		{
			OFFSET 0.036482 -0.391037 -0.003979
			CHANNELS 3 Zrotation Yrotation Xrotation
			JOINT Left_ankle
			{
				OFFSET -0.012239 -0.415469 -0.043440
				CHANNELS 3 Zrotation Yrotation Xrotation
				JOINT Left_foot
				{
					OFFSET 0.023806 -0.058558 0.118702
					CHANNELS 3 Zrotation Yrotation Xrotation
					End Site
					{
						OFFSET 0.000000 0.000000 0.000000
					}
				}
			}
		}
	}
	JOINT Right_hip
	{
		OFFSET -0.066552 -0.090468 -0.003847
		CHANNELS 3 Zrotation Yrotation Xrotation
		JOINT Right_knee
		{
			OFFSET -0.042435 -0.398340 -0.006400
			CHANNELS 3 Zrotation Yrotation Xrotation
			JOINT Right_ankle
			{
				OFFSET 0.014931 -0.415421 -0.041327
				CHANNELS 3 Zrotation Yrotation Xrotation
				JOINT Right_foot
				{
					OFFSET -0.021472 -0.049410 0.121889
					CHANNELS 3 Zrotation Yrotation Xrotation
					End Site
					{
						OFFSET 0.000000 0.000000 0.000000
					}
				}
			}
		}
	}
	JOINT Spine1
	{
		OFFSET -0.002904 0.105700 -0.022855
		CHANNELS 3 Zrotation Yrotation Xrotation
		JOINT Spine2
		{
			OFFSET 0.004179 0.132554 -0.002501
			CHANNELS 3 Zrotation Yrotation Xrotation
			JOINT Spine3
			{
				OFFSET 0.001987 0.049603 0.025988
				CHANNELS 3 Zrotation Yrotation Xrotation
				JOINT Neck
				{
					OFFSET -0.003935 0.211336 -0.045638
					CHANNELS 3 Zrotation Yrotation Xrotation
					JOINT Head
					{
						OFFSET 0.003906 0.065991 0.051018
						CHANNELS 3 Zrotation Yrotation Xrotation
						End Site
						{
							OFFSET 0.000000 0.000000 0.000000
						}
					}
				}
				JOINT Left_collar
				{
					OFFSET 0.072882 0.117751 -0.036270
					CHANNELS 3 Zrotation Yrotation Xrotation
					JOINT Left_shoulder
					{
						OFFSET 0.082118 0.032630 -0.005771
						CHANNELS 3 Zrotation Yrotation Xrotation
						JOINT Left_elbow
						{
							OFFSET 0.263305 -0.015144 -0.028095
							CHANNELS 3 Zrotation Yrotation Xrotation
							JOINT Left_wrist
							{
								OFFSET 0.250741 0.010115 -0.000759
								CHANNELS 3 Zrotation Yrotation Xrotation
								JOINT Left_palm
								{
									OFFSET 0.080683 -0.009989 -0.013613
									CHANNELS 3 Zrotation Yrotation Xrotation
									End Site
									{
										OFFSET 0.000000 0.000000 0.000000
									}
								}
							}
						}
					}
				}
				JOINT Right_collar
				{
					OFFSET -0.074811 0.116132 -0.040385
					CHANNELS 3 Zrotation Yrotation Xrotation
					JOINT Right_shoulder
					{
						OFFSET -0.085089 0.032943 -0.007484
						CHANNELS 3 Zrotation Yrotation Xrotation
						JOINT Right_elbow
						{
							OFFSET -0.254763 -0.014219 -0.020321
							CHANNELS 3 Zrotation Yrotation Xrotation
							JOINT Right_wrist
							{
								OFFSET -0.256597 0.009233 -0.005063
								CHANNELS 3 Zrotation Yrotation Xrotation
								JOINT Right_palm
								{
									OFFSET -0.080528 -0.007219 -0.010379
									CHANNELS 3 Zrotation Yrotation Xrotation
									End Site
									{
										OFFSET 0.000000 0.000000 0.000000
									}
								}
							}
						}
					}
				}
			}
		}
	}
}
MOTION
Frames: 15
Frame Time: 0.100000
0.000000 0.000000 0.000000 177.483061 8.360562 -18.977547 8.898387 7.881338 16.057404 -2.412748 5.128128 -7.112864 -4.205434 9.447118 2.157109 2.425053 7.024734 -3.502852 -4.963136 -6.116096 12.992757 3.481294 -7.624832 -4.420351 4.040367 -4.220676 1.876002 0.630271 -5.886163 3.501402 0.553636 0.562332 -1.726473 0.790012 -3.154302 13.156413 1.382362 -1.724308 -0.349005 -0.378424 9.264855 7.057524 0.025123 -2.448215 -13.068033 -24.910934 -6.772762 10.290431 -52.489675 -3.530417 8.188102 5.598303 -26.483517 12.698578 -13.394435 -14.672562 11.459115 -7.179946 -0.205014 -20.777547 24.758978 11.790173 11.549458 53.003484 1.088788 10.480779 -9.436056 20.074116 6.957408 5.222460 10.837425 7.621921 7.859531 1.741775 -6.872062 
0.002847 -0.000136 0.005675 177.649216 8.652850 -18.635924 9.025153 7.740082 16.127259 -2.489161 4.736493 -7.378703 -4.239987 9.280583 2.145048 2.574716 7.052767 -3.503202 -4.797983 -6.204025 12.576737 3.287608 -7.800070 -3.544858 3.470643 -4.280478 0.910656 1.004585 -5.901097 3.956169 0.848618 0.401726 -1.941577 0.740627 -3.171771 12.419995 1.093183 -1.750685 -0.846441 -0.279735 9.020218 7.579487 -0.281076 -2.270761 -11.922670 -25.055880 -6.809137 9.514319 -51.931350 -4.348486 8.726807 5.990439 -28.924190 12.213253 -11.848502 -14.600832 11.170333 -7.523041 -0.485351 -20.177658 24.705143 11.408481 10.726974 52.533605 1.361106 10.908318 -9.341574 21.306361 7.188898 4.975721 10.806758 7.886858 7.958170 2.042218 -6.691345 
0.008784 -0.000630 0.012759 177.872216 8.208931 -18.240941 9.358312 7.850357 16.657642 -2.490473 4.710781 -8.244505 -4.317859 9.301037 2.685955 2.598449 7.179491 -3.565523 -4.477512 -6.020241 11.994385 3.236165 -7.756632 -2.484778 3.230761 -4.268443 0.040025 0.923821 -5.916010 4.228158 0.943929 0.080204 -2.025838 0.723311 -3.232234 11.874241 0.991658 -1.825397 -1.030336 -0.005820 8.863936 7.987156 -0.291705 -2.216310 -10.745981 -25.092466 -7.236389 9.488729 -51.761791 -4.568205 8.992775 6.029754 -29.126224 12.240952 -11.425795 -14.234596 11.149912 -7.993993 -0.786652 -20.424801 24.433734 11.527597 10.421938 52.536856 1.660300 11.089807 -9.812960 22.841539 6.909030 4.768588 10.920757 7.315543 8.259032 2.168587 -6.807960 
0.019148 -0.002109 0.021207 177.918245 8.021894 -18.077565 10.065902 8.000657 16.897525 -2.284068 4.992148 -8.261563 -4.701774 9.214422 3.311667 2.781852 7.300864 -3.696129 -4.005308 -5.938224 12.190331 3.613242 -7.634990 -2.332778 3.169087 -4.427873 -0.275567 0.645177 -5.640310 4.589064 0.970333 -0.304046 -2.149317 0.830688 -3.716837 11.854094 0.980790 -2.240971 -0.738258 0.262715 8.874130 9.255121 -0.623026 -2.356160 -8.747241 -25.149273 -7.549625 9.969500 -51.450459 -4.535864 9.083082 5.438281 -27.756764 12.835643 -11.469634 -13.533519 11.437833 -8.488475 -1.118468 -20.992696 24.276188 11.478845 10.139383 52.188218 2.049086 11.289351 -9.996783 23.908712 7.014365 4.570884 10.738284 7.400822 8.773094 2.319489 -7.144027 
0.032894 -0.002514 0.029664 177.976170 7.704063 -17.680076 10.912720 8.133492 16.584737 -2.016585 5.374695 -7.685858 -5.171754 9.333992 3.647036 3.013895 7.282382 -3.939506 -3.237037 -5.786842 12.649632 4.102337 -7.200916 -3.142714 2.879228 -4.517105 -0.865079 0.581232 -5.694225 5.043720 0.923489 -0.490711 -2.019431 0.916732 -3.960960 11.710818 1.064318 -2.474754 -0.286178 0.570363 8.627188 9.865600 -0.604801 -2.562910 -8.245283 -25.003215 -6.986618 10.120062 -51.440581 -3.834379 9.026708 5.260339 -26.946811 13.295178 -11.581900 -13.221334 11.464968 -8.681297 -1.214480 -21.227691 23.981358 10.889968 9.788862 52.000712 1.703828 11.213427 -10.049536 24.106048 7.293753 4.400668 10.597973 7.281232 8.990090 2.298990 -7.153647 
0.049298 -0.001892 0.039741 178.183373 7.295109 -17.016259 11.870374 8.422487 16.570037 -1.905550 5.321001 -7.998632 -5.613921 9.689278 4.183775 3.149468 6.947581 -4.042836 -2.349681 -5.569529 12.437699 4.460474 -6.839453 -3.174401 2.068395 -4.449894 -1.968108 1.334517 -6.110942 5.590435 0.711958 -0.651326 -1.929189 0.909131 -3.845395 11.783978 1.099697 -2.411226 -0.285326 0.627371 8.314461 9.914745 -0.484100 -2.560612 -8.575590 -25.012303 -6.203349 10.139279 -51.256809 -2.699147 9.243715 5.225481 -25.949286 13.370706 -11.409750 -13.299728 11.453324 -8.693781 -1.246784 -21.208555 24.079626 10.420312 9.832632 51.733229 0.794765 11.237068 -9.397448 22.467935 7.836811 4.383574 10.617589 6.926749 8.949137 2.227125 -6.846100 
0.068039 -0.001937 0.051665 178.242084 7.464343 -16.347480 13.006631 8.626350 16.590257 -1.696576 5.200952 -8.545888 -6.232306 9.931305 5.182684 3.279950 6.581979 -4.311346 -1.377107 -5.456385 12.617625 5.053387 -6.669130 -3.615081 1.138281 -4.443381 -2.780302 2.328655 -6.749287 6.286894 0.446890 -0.855624 -2.050467 0.758963 -3.765205 11.697126 1.094930 -2.403443 -0.161654 0.621370 7.829173 10.804998 -0.375569 -2.693912 -8.415996 -24.742834 -5.570789 10.236018 -51.266452 -2.156612 9.663084 5.234763 -24.052374 13.566712 -11.558434 -13.434389 11.363827 -8.714795 -1.190525 -21.296445 24.002623 10.062759 10.045333 52.256380 0.009157 11.563855 -8.411291 19.419853 8.705391 4.619250 10.380779 5.885823 8.794731 2.109595 -6.481269 
0.089184 -0.001572 0.063926 178.364262 8.273521 -15.982641 14.028038 8.398612 15.872615 -1.227850 5.110812 -7.465132 -6.761389 9.974587 5.888867 3.409471 6.485702 -4.771866 -0.330793 -5.440567 13.021015 5.468681 -6.712748 -3.789019 0.073069 -4.658895 -3.766645 3.132563 -7.314879 6.921101 0.077188 -0.810692 -1.699820 0.476640 -3.674417 11.740749 1.051881 -2.434402 0.151568 0.592724 7.433984 11.696942 -0.209351 -3.173709 -8.323206 -24.343512 -4.966473 10.165585 -51.129635 -1.935063 9.541835 5.900303 -24.014310 13.099241 -11.842477 -13.829900 11.021423 -8.651329 -0.933506 -21.010299 23.947830 9.762354 10.259405 53.048822 -0.917102 11.880467 -7.756742 18.666366 9.971787 4.868562 10.573980 5.127041 8.532744 1.876204 -5.821571 
0.108472 -0.002006 0.075056 178.840668 9.067026 -15.621316 14.539192 7.993963 14.000884 -0.852218 5.357340 -4.278780 -7.027334 9.983622 6.461320 3.572220 6.573544 -5.742501 0.395111 -5.139632 12.993144 5.602085 -6.928309 -3.241264 -1.434887 -4.752323 -4.492100 4.634471 -8.507427 7.594490 -0.232302 -0.521436 -1.432282 0.114324 -3.371135 11.772190 0.770531 -2.253516 0.563871 1.463827 4.755034 14.959160 0.992945 -4.938947 -5.421752 -23.596258 -4.418076 10.249475 -51.431776 -2.822145 9.933353 6.836335 -24.321547 12.440709 -12.277769 -15.178789 10.208229 -8.270452 -0.122510 -20.414146 23.015404 9.985305 10.683663 54.397744 -1.177306 12.711328 -7.204893 19.385693 10.948195 4.629788 11.826005 2.574752 7.426844 1.167710 -4.571161 
0.121985 -0.003993 0.082943 179.525517 8.994982 -15.678143 14.300326 6.877290 9.087294 0.129180 6.676224 5.559929 -6.408332 10.320271 6.111465 3.572716 7.086536 -7.037647 0.995208 -4.472944 12.814673 5.160618 -7.091859 -1.834410 -4.813254 -4.733665 -4.655695 8.921573 -10.731360 9.118887 -0.574164 0.400898 -2.007575 0.424846 -3.482149 13.135349 -0.003236 -2.061937 0.356597 2.787117 -4.113202 24.072843 2.736614 -11.333194 2.755172 -22.950142 -2.528342 9.840413 -52.170855 -5.297959 12.161006 7.827832 -22.907410 10.426573 -13.670636 -17.035246 10.159544 -7.792723 0.814778 -18.732550 21.953692 10.045694 9.973273 54.342570 -0.086546 14.266046 -7.054084 20.333301 9.946545 3.931192 14.312101 -0.427523 5.914407 0.281640 -2.333114 
0.121439 -0.008205 0.085598 -179.228474 8.101518 -16.987375 12.751997 4.606719 1.917941 0.387486 9.121069 21.626953 -3.993836 10.591967 3.336018 3.642558 8.458128 -7.663941 0.565667 -3.367597 13.456061 4.044396 -7.091897 0.747585 -8.050686 -4.356067 -4.576087 13.185569 -13.038645 9.768629 -0.926634 1.695555 -1.761089 1.085920 -4.407643 16.765187 -0.665768 -2.444399 0.424615 2.784543 -12.527066 35.137599 3.130408 -17.626312 10.417150 -23.012409 -0.710245 10.524902 -53.063552 -7.731403 12.938052 9.207837 -23.880604 7.626111 -15.497736 -19.090389 10.014248 -6.870421 2.311346 -17.168052 20.792120 10.042328 9.288947 52.524872 1.835978 14.308893 -9.428268 25.711326 6.551824 2.340647 17.428435 -1.935543 4.367372 -0.983552 -0.308209 
0.112012 -0.009305 0.085564 -177.418128 7.598547 -17.627622 9.936513 1.896765 -6.335463 -2.918794 8.104448 30.855709 -3.810422 6.837176 2.476601 3.158921 10.846676 -8.696075 -1.180627 -2.697026 14.237110 3.050940 -6.556006 1.873770 -7.975800 -4.271530 -4.925751 12.018065 -13.376399 8.973223 -0.268521 2.555196 1.012824 1.276359 -6.071204 19.301450 -0.595210 -3.351296 2.163104 2.758749 -14.356781 38.395516 4.953656 -18.970992 8.869329 -23.063472 -1.073491 11.740291 -53.359104 -7.303619 11.443373 8.711044 -28.701655 8.521459 -17.888901 -20.120505 10.106432 -6.096000 3.345458 -16.456996 18.362825 9.251614 8.338261 50.906050 1.441934 12.621086 -14.497394 40.310539 3.881499 1.353009 20.272803 -0.853668 3.903144 -1.698674 0.108952 
0.097763 -0.013726 0.090812 -176.617628 6.498013 -16.745338 7.343472 2.694118 -10.871779 -2.908443 11.114845 21.443888 -2.207399 6.765446 3.980217 1.665251 12.410453 -6.603438 -2.367787 -2.438645 14.572961 2.398115 -6.093942 0.673533 -6.154353 -3.631220 -4.338059 10.769287 -13.570270 9.658742 1.347476 2.507189 3.767216 1.322367 -7.410627 19.450290 -0.359474 -3.891314 3.699419 2.181162 -14.260193 40.075164 5.863816 -18.154626 6.458086 -22.624125 -1.551627 11.721770 -54.637433 -6.110046 11.499857 8.601914 -29.609344 9.226705 -19.607290 -19.150335 10.141380 -7.079605 2.514978 -17.998231 15.670025 8.086429 7.797572 51.603191 0.706341 12.910230 -18.273105 50.568140 1.498665 1.124524 21.173207 -1.788456 5.266117 -1.361135 -1.883550 
0.081008 -0.016513 0.109388 -176.740522 3.710579 -16.032926 5.412165 3.815260 -9.639532 -3.197661 10.845608 3.378980 -0.633841 6.181243 7.802386 -0.610460 14.351788 -4.747425 -2.904270 -2.129099 14.773610 1.965686 -5.494435 0.898293 -4.109888 -2.253530 -4.459679 9.651573 -14.797186 10.255161 2.693549 1.795170 5.820183 0.882664 -7.597665 18.666562 -0.243891 -3.898085 5.403202 1.604356 -14.130160 42.231136 7.301578 -16.720505 3.432746 -21.625093 -1.738298 11.273838 -55.595619 -4.519425 11.302043 9.771670 -31.186745 10.427493 -22.249613 -18.268277 10.566434 -8.326765 1.694851 -20.433406 12.275379 6.931503 7.635531 54.613226 -1.192744 14.391235 -20.511445 61.425170 1.966524 2.634532 22.058172 -4.668393 6.247301 -1.222579 -3.619729 
0.062002 -0.018128 0.142686 -177.548559 -0.788794 -15.539573 5.666491 2.523357 -7.533408 -3.116443 6.463931 -1.113518 -0.401691 4.082766 8.643518 -1.581974 16.427090 -5.580793 -3.182023 -0.948344 15.224367 1.891685 -3.359080 2.157571 -2.852858 -1.384604 -5.217468 8.153435 -14.701050 9.924098 2.626098 1.525983 5.180211 -0.153436 -7.957782 18.840251 -1.049731 -4.497902 6.483850 1.651156 -12.398643 44.221653 7.194135 -15.280124 3.278099 -21.295858 -1.202053 10.763157 -53.952310 -3.178824 9.620461 10.892463 -31.561467 9.492348 -23.842209 -17.619358 11.211754 -8.683083 1.597718 -21.038858 10.717176 5.918840 7.360597 55.949904 -2.808876 16.632666 -17.077662 73.939076 8.202458 3.938114 23.468002 -4.072885 6.993307 -1.291971 -3.724126 
